<?xml version="1.0" standalone="no"?>
<!DOCTYPE svg PUBLIC "-//W3C//DTD SVG 20010904//EN"
 "http://www.w3.org/TR/2001/REC-SVG-20010904/DTD/svg10.dtd">
<svg version="1.0" xmlns="http://www.w3.org/2000/svg"
 width="300.000000pt" height="309.000000pt" viewBox="0 0 300.000000 309.000000"
 preserveAspectRatio="xMidYMid meet">
<metadata>
Created by potrace 1.10, written by Peter Selinger 2001-2011
</metadata>
<g transform="translate(0.000000,309.000000) scale(0.100000,-0.100000)"
fill="#000000" stroke="none">
<path d="M0 3080 c0 -7 507 -10 1500 -10 993 0 1500 3 1500 10 0 7 -507 10
-1500 10 -993 0 -1500 -3 -1500 -10z"/>
<path d="M90 3015 c49 -60 235 -239 320 -309 163 -134 458 -321 477 -303 2 3
-28 22 -69 44 -178 93 -381 248 -590 451 -75 72 -139 132 -143 132 -4 0 -2 -7
5 -15z"/>
<path d="M200 3017 c83 -67 330 -247 430 -313 140 -92 328 -199 336 -191 5 5
-67 50 -156 97 -25 13 -56 31 -70 40 -159 104 -257 173 -384 267 -83 62 -155
113 -161 113 -5 0 -3 -6 5 -13z"/>
<path d="M2812 3018 c-5 -7 -33 -57 -61 -110 -124 -236 -284 -469 -435 -633
-25 -27 -46 -54 -46 -60 2 -38 288 324 387 490 55 92 148 265 165 307 9 21 5
23 -10 6z"/>
<path d="M2967 2832 c-34 -91 -108 -226 -185 -337 -67 -96 -301 -332 -430
-434 -51 -41 -90 -76 -87 -79 7 -7 51 25 170 127 197 169 335 325 432 489 72
121 135 258 131 286 -2 19 -10 6 -31 -52z"/>
<path d="M1182 2615 c-65 -41 -91 -48 -60 -17 6 6 9 14 6 17 -3 3 -33 -24 -68
-61 l-62 -67 79 -36 78 -37 16 50 c17 56 51 126 81 169 11 15 16 27 11 27 -5
0 -41 -20 -81 -45z m-36 -109 c-16 -39 -31 -44 -62 -22 -25 20 -9 47 37 62 41
14 45 7 25 -40z"/>
<path d="M960 2440 c-12 -16 -17 -30 -11 -30 14 0 51 37 51 50 0 19 -19 10
-40 -20z"/>
<path d="M1640 2443 c-67 -7 -235 -45 -281 -63 -57 -23 -119 -60 -100 -60 8 0
22 7 31 15 15 13 36 8 206 -51 201 -70 455 -147 461 -140 9 9 -111 56 -304
121 -111 37 -210 73 -220 80 -15 11 -11 15 36 29 29 8 98 20 154 27 100 11
105 10 222 -20 122 -32 239 -82 286 -124 38 -34 60 -72 54 -89 -10 -26 -213
-203 -222 -194 -3 2 -12 19 -21 37 -24 46 -46 57 -70 36 -28 -25 -32 -22 -32
27 l0 45 53 3 c44 3 21 9 -163 46 -118 24 -276 59 -350 77 -145 36 -391 117
-427 141 -21 13 -24 12 -43 -25 -11 -22 -30 -75 -42 -118 -20 -70 -22 -102
-23 -298 0 -174 4 -236 17 -299 29 -128 24 -212 -18 -318 -19 -49 -36 -101
-37 -116 -2 -26 1 -27 48 -30 64 -4 75 -15 75 -69 0 -38 4 -46 30 -61 22 -13
30 -24 30 -46 0 -15 11 -41 25 -58 14 -16 25 -36 25 -44 0 -13 -30 -20 -55
-14 -5 2 -18 4 -28 5 -46 4 -49 64 -4 105 l32 30 -28 -10 c-64 -23 -70 -29
-64 -71 6 -48 30 -86 62 -101 19 -9 33 -6 76 16 29 14 67 26 85 26 31 0 63 24
50 37 -5 5 -52 -6 -94 -23 -20 -9 -32 39 -13 53 14 11 11 12 -16 13 -30 0 -33
3 -33 30 0 22 6 33 23 39 19 8 67 51 56 51 -3 0 -22 -9 -44 -20 -47 -24 -68
-25 -89 -4 -18 17 -22 99 -6 109 6 4 8 11 5 16 -5 8 16 14 38 10 4 0 7 4 7 9
0 16 -66 12 -80 -5 -8 -9 -30 -15 -56 -15 -55 0 -56 7 -7 125 45 112 52 187
28 305 -21 100 -15 206 15 302 22 71 24 81 9 56 -25 -43 -32 -17 -26 100 5
114 24 204 53 249 l14 23 53 -21 c146 -59 431 -138 636 -176 55 -10 60 -23 20
-47 -18 -10 -54 -40 -81 -67 -26 -26 -53 -49 -59 -51 -17 -6 -39 -106 -38
-173 l1 -60 13 63 c8 35 26 85 41 110 34 58 108 137 155 167 32 21 41 22 81
13 l46 -11 -5 -81 c-5 -75 -3 -86 27 -154 18 -40 34 -71 36 -69 2 2 0 28 -6
58 -10 59 7 190 25 190 16 1 36 -83 30 -120 -6 -33 -5 -34 12 -21 34 27 178
153 240 210 56 53 60 59 48 78 -8 10 -12 22 -10 24 3 3 -18 27 -47 55 -85 80
-252 151 -363 154 -37 1 -38 2 -10 8 27 6 24 8 -25 14 -56 7 -67 7 -130 0z"/>
<path d="M1236 2365 c-48 -38 -54 -45 -33 -45 15 1 106 80 91 80 -6 0 -32 -16
-58 -35z"/>
<path d="M15 2179 c25 -43 154 -224 256 -359 191 -253 354 -434 473 -525 54
-41 54 -24 1 19 -96 79 -211 203 -384 411 -28 34 -183 245 -260 352 -40 57
-78 106 -83 110 -7 4 -8 1 -3 -8z"/>
<path d="M2218 2065 c-18 -87 -6 -110 17 -33 17 58 18 77 7 95 -5 8 -14 -18
-24 -62z"/>
<path d="M0 2078 c0 -17 80 -161 183 -328 28 -44 137 -202 178 -255 143 -189
311 -338 472 -420 20 -11 37 -23 37 -27 0 -4 -14 -27 -30 -51 -75 -111 -5
-236 125 -225 29 2 65 12 80 22 36 24 26 30 -18 11 -72 -30 -158 -9 -187 46
-20 37 -6 103 33 158 l36 50 -54 25 c-199 91 -404 294 -612 606 -70 104 -181
288 -221 365 -12 22 -21 32 -22 23z"/>
<path d="M1115 2061 c-22 -10 -49 -28 -59 -40 -21 -23 -12 -29 13 -7 9 7 36
25 61 39 52 31 44 35 -15 8z"/>
<path d="M1302 2047 c-11 -12 -31 -45 -46 -74 -24 -48 -28 -51 -60 -49 -29 3
-133 -27 -211 -59 -28 -12 -77 -51 -50 -40 134 52 207 76 251 81 43 5 57 12
70 33 10 14 35 42 57 63 36 33 39 38 25 52 -14 13 -18 13 -36 -7z"/>
<path d="M1014 2029 c-3 -6 -21 -17 -38 -24 -17 -7 -39 -28 -50 -47 l-19 -33
32 35 c23 25 29 28 21 12 -19 -40 -6 -33 38 18 24 28 39 50 33 50 -5 0 -13 -5
-17 -11z"/>
<path d="M1351 2001 c-7 -12 -22 -48 -32 -79 -40 -116 -40 -115 -64 -562 -3
-64 -2 -69 5 -31 5 24 11 46 13 48 3 2 8 -30 12 -71 12 -135 23 -141 24 -13 1
181 52 459 98 537 l14 25 -6 -25 c-21 -89 -35 -178 -34 -218 1 -41 3 -36 14
33 15 97 47 215 79 295 14 33 20 60 15 60 -18 0 -147 -222 -155 -269 -6 -28
-8 -32 -14 -16 -8 22 2 87 31 202 22 86 22 125 0 84z"/>
<path d="M2184 1941 c-17 -16 -36 -30 -41 -32 -6 -2 -7 -25 -4 -54 6 -53 -2
-176 -15 -210 -4 -13 -4 -16 3 -10 29 30 96 255 91 304 l-3 30 -31 -28z"/>
<path d="M2946 1904 c-35 -13 -61 -16 -223 -28 -34 -3 -78 -12 -99 -21 -81
-34 -142 -103 -129 -145 7 -22 -5 -29 -93 -55 -51 -15 -68 -16 -83 -7 -23 15
-145 16 -154 2 -4 -6 23 -10 74 -10 66 0 81 -3 81 -15 0 -9 -7 -18 -15 -21 -8
-4 -15 -12 -15 -19 0 -9 20 -2 55 20 88 53 248 82 275 50 16 -19 30 -19 30 -1
0 11 9 13 38 9 20 -3 39 -10 40 -15 2 -5 9 -5 15 0 7 4 37 16 67 27 30 10 81
34 113 52 32 18 63 33 68 33 5 0 9 10 9 21 0 20 -2 20 -22 7 -55 -36 -138 -78
-191 -98 -55 -21 -60 -21 -98 -6 -23 9 -69 16 -109 16 -81 0 -88 10 -44 68 44
57 115 83 257 92 112 8 179 21 200 40 17 15 -9 17 -47 4z"/>
<path d="M1643 1870 c-36 -22 -48 -40 -57 -90 -6 -32 -4 -30 17 15 35 75 110
101 143 50 45 -69 -31 -305 -98 -305 -15 0 -8 27 12 45 11 10 20 23 20 28 0 6
-11 0 -24 -12 -18 -17 -33 -22 -56 -19 -19 3 -29 1 -27 -6 2 -6 13 -12 25 -14
18 -3 20 -7 12 -21 -5 -10 -7 -21 -4 -24 7 -7 16 -85 15 -129 -1 -20 3 -39 9
-43 6 -4 10 5 10 19 0 14 4 26 9 26 6 0 8 19 5 42 -3 23 -5 44 -6 47 -3 34 6
52 32 66 18 9 40 35 55 65 28 54 48 172 39 220 -12 58 -72 77 -131 40z"/>
<path d="M2010 1823 c-93 -63 -95 -65 -102 -111 -3 -26 -7 -79 -7 -117 l-1
-71 35 4 c32 4 41 -1 75 -37 28 -29 40 -51 40 -71 0 -25 -5 -30 -37 -39 -87
-21 -153 -31 -153 -21 0 11 36 41 42 35 3 -3 18 1 34 10 16 8 40 15 54 15 17
0 21 3 13 11 -7 7 -23 7 -53 -1 -54 -15 -86 -34 -127 -79 -53 -56 -44 -64 33
-31 26 12 50 17 53 13 3 -5 19 -14 36 -22 29 -12 29 -13 10 -28 -11 -8 -26
-18 -33 -22 -11 -6 -11 -20 -3 -67 l10 -59 -3 58 c-1 32 1 54 5 50 4 -4 19
-48 34 -98 37 -123 65 -195 75 -195 4 0 -3 34 -16 75 -40 125 -27 128 25 5 61
-147 102 -228 160 -315 62 -95 62 -95 58 -95 -5 0 -208 238 -248 291 -51 68
-97 164 -119 253 -11 44 -22 82 -25 84 -11 12 -3 -57 14 -108 l17 -55 -91
-100 c-137 -150 -181 -208 -199 -263 -32 -95 -76 -158 -266 -378 -53 -61 -108
-126 -123 -145 -15 -19 -27 -29 -27 -24 0 23 81 155 160 261 72 96 89 114 112
114 36 0 49 22 86 140 32 102 54 223 29 165 -20 -48 -47 -95 -55 -95 -4 0 -19
16 -35 35 l-28 35 26 49 c14 28 25 53 25 56 0 3 -24 5 -54 5 -38 0 -55 -4 -60
-15 -11 -30 65 -195 90 -195 7 0 15 -4 18 -9 10 -16 -79 -165 -162 -271 -89
-114 -142 -205 -176 -308 l-23 -67 -576 -3 c-569 -2 -577 -2 -577 -22 0 -20 7
-20 568 -20 511 0 570 2 591 17 21 14 28 14 60 3 49 -18 728 -18 772 0 23 10
32 10 45 -1 12 -10 116 -14 490 -16 472 -4 474 -4 474 17 0 20 -5 20 -241 20
l-241 0 6 24 c8 33 -9 42 -28 15 l-15 -21 -28 19 c-34 24 -131 43 -99 20 11
-8 21 -24 23 -37 3 -22 1 -23 -44 -16 -27 3 -61 9 -78 12 -23 4 -26 3 -15 -5
11 -8 0 -11 -46 -11 -67 0 -102 21 -84 50 5 8 10 10 10 4 0 -7 8 -15 17 -18
15 -6 15 -5 -1 13 -19 21 -19 21 -45 -7 -16 -16 -22 -30 -16 -34 6 -4 0 -8
-12 -8 -19 0 -23 6 -23 29 0 17 -5 33 -12 37 -20 13 -70 5 -83 -13 -7 -10 -19
-14 -29 -10 -9 4 -16 2 -16 -3 0 -6 7 -10 16 -10 8 0 13 -4 10 -8 -3 -5 8 -6
25 -4 17 3 29 0 29 -7 0 -6 -19 -11 -45 -11 -25 0 -45 5 -45 10 0 6 -12 10
-27 9 l-28 -1 25 -8 c14 -4 -131 -8 -322 -8 -192 -1 -348 2 -348 6 0 17 62
112 69 107 12 -7 -11 -55 -26 -55 -6 0 -11 -9 -10 -19 1 -14 12 -21 42 -26 37
-6 42 -3 67 26 15 18 31 29 35 25 4 -4 1 -11 -7 -16 -8 -5 -11 -12 -6 -17 4
-4 12 0 17 10 6 9 21 17 34 17 14 0 25 4 25 10 0 5 -7 7 -15 4 -8 -4 -15 -1
-15 4 0 6 11 9 24 6 14 -2 26 1 29 9 3 9 20 13 46 13 26 -1 42 3 46 12 3 10
-1 11 -16 7 -15 -5 -19 -4 -14 4 9 16 77 2 92 -18 9 -13 16 -14 31 -4 12 7 23
8 29 2 16 -16 70 -28 80 -18 12 12 63 -6 63 -21 0 -9 -25 -7 -90 7 -14 2 -45
7 -70 9 -24 3 -52 12 -61 20 -19 17 -39 11 -39 -11 0 -9 -6 -12 -15 -8 -9 3
-15 2 -13 -3 2 -5 -1 -9 -7 -9 -5 0 -9 3 -8 7 1 3 -4 8 -11 11 -10 4 -12 0 -9
-14 7 -26 19 -32 42 -20 15 8 20 7 25 -5 3 -9 4 -20 0 -25 -3 -5 10 -9 28 -8
30 0 31 1 11 9 -13 5 -23 11 -23 13 0 1 24 3 54 2 39 0 60 -6 75 -20 22 -19
22 -19 15 1 -10 25 -23 34 -54 34 -44 0 -100 20 -100 35 0 8 5 15 11 15 5 0 7
-6 3 -13 -4 -6 -4 -9 1 -5 4 4 13 4 19 -1 6 -5 61 -17 121 -26 61 -9 118 -21
127 -26 9 -5 24 -6 32 -3 17 7 22 34 6 34 -6 0 -9 -5 -8 -11 2 -6 -3 -14 -11
-17 -10 -3 -12 0 -8 11 4 11 2 14 -8 11 -7 -3 -16 3 -20 15 -6 19 -17 23 -102
36 -24 4 -46 11 -49 16 -3 6 6 7 23 4 15 -3 73 -13 128 -22 63 -11 92 -19 77
-22 l-22 -6 21 -13 c12 -8 18 -9 14 -3 -3 6 -2 11 4 11 5 0 11 -3 14 -7 2 -5
2 -2 0 6 -2 10 4 12 22 7 14 -4 25 -4 25 -1 0 8 -57 34 -63 28 -4 -3 -10 2
-13 11 -5 14 -9 15 -15 4 -7 -10 -9 -9 -9 4 0 10 -15 25 -32 34 -18 10 -38 24
-45 33 -6 9 -15 12 -19 8 -5 -4 -2 -12 6 -18 11 -7 8 -8 -12 -5 -16 3 -27 0
-25 -6 1 -6 -4 -13 -12 -16 -10 -3 -12 0 -8 11 7 18 -15 29 -40 20 -11 -4 -14
-3 -9 6 5 7 22 10 47 7 42 -5 49 5 24 31 -13 12 -18 13 -31 3 -12 -11 -17 -10
-27 4 -12 16 -70 35 -109 36 -14 0 -13 -4 7 -25 43 -42 25 -97 -18 -57 -12 11
-44 24 -70 27 l-49 8 24 -25 c17 -17 27 -21 39 -14 20 11 52 0 46 -17 -2 -6
-15 -12 -28 -12 -13 0 -30 -8 -38 -18 -13 -18 -14 -18 -35 2 -12 11 -41 23
-66 27 l-45 7 20 -23 20 -23 -24 8 c-16 5 -21 4 -17 -4 4 -6 14 -11 22 -11 15
0 20 -35 5 -44 -4 -3 -16 3 -26 14 -10 11 -33 22 -51 26 -19 3 -34 10 -34 15
0 5 12 6 28 3 22 -4 29 0 39 20 10 23 9 26 -10 26 -13 0 -17 4 -11 9 5 6 40 4
88 -5 44 -7 82 -12 84 -9 8 8 -48 25 -82 25 -19 0 -39 7 -46 15 -9 10 -9 15
-1 15 6 0 11 -6 11 -12 1 -7 9 -2 20 11 l20 23 87 -16 c104 -19 110 -19 97 -6
-5 5 -32 13 -59 16 -49 7 -75 19 -75 34 0 5 10 6 23 2 22 -5 22 -5 3 16 -10
12 -23 19 -27 16 -5 -3 -9 -1 -9 5 0 21 22 22 43 3 13 -12 48 -25 87 -31 36
-6 76 -14 90 -16 24 -5 24 -5 6 10 -11 8 -34 15 -52 15 -17 0 -37 6 -43 14
-10 12 -7 15 16 18 l28 3 -32 15 c-18 8 -33 20 -33 27 0 7 -6 10 -12 8 -7 -3
-26 -1 -43 4 -17 5 -22 10 -12 10 11 1 15 6 11 13 -4 7 -3 8 4 4 7 -4 12 -1
12 9 0 11 5 15 15 11 8 -3 14 0 12 6 -1 6 4 13 12 16 10 3 12 0 7 -14 -6 -15
-5 -16 5 -7 10 10 9 16 -2 29 -12 15 -12 16 9 10 14 -5 22 -3 22 4 0 8 11 11
29 8 18 -3 29 0 28 6 -1 6 6 10 16 10 9 -1 17 2 17 6 0 4 11 8 25 8 13 0 22
-4 19 -9 -3 -5 -3 -9 0 -9 3 0 12 12 20 28 8 15 23 37 33 49 17 20 24 21 54
13 42 -12 50 -12 46 -1 -1 5 3 9 8 9 6 0 9 -4 8 -9 -2 -5 2 -9 7 -9 13 0 13
27 0 35 -5 3 -19 1 -30 -5 -17 -9 -20 -7 -26 15 -4 14 -5 28 -3 30 2 2 29 -2
60 -8 37 -8 54 -16 52 -24 -3 -7 -9 -13 -14 -13 -6 0 -7 5 -4 10 3 6 -1 10
-11 10 -13 0 -14 -3 -4 -15 16 -19 37 -19 47 -1 4 8 17 14 28 13 11 -1 21 5
23 15 2 10 -1 18 -7 18 -6 0 -8 -7 -4 -16 4 -12 2 -15 -8 -12 -8 3 -13 11 -11
17 1 7 -2 10 -7 7 -5 -3 -15 2 -22 11 -13 15 -11 16 13 10 15 -4 30 -3 33 3 4
6 -7 10 -27 10 -18 0 -44 3 -58 5 -25 5 -25 5 -2 -6 36 -19 27 -35 -18 -31
-44 4 -48 9 -23 27 9 7 17 23 19 36 1 13 3 25 3 26 1 0 21 -5 46 -12 24 -8 47
-10 50 -5 6 9 44 2 62 -12 7 -5 12 -5 15 2 1 5 16 -6 31 -25 26 -32 26 -35 8
-35 -11 0 -23 -5 -27 -12 -5 -7 -3 -8 6 -3 8 5 11 4 6 -3 -3 -6 -20 -9 -37 -7
-21 3 -29 0 -26 -8 2 -7 11 -11 18 -9 12 3 12 1 0 -10 -9 -9 -15 -10 -18 -2
-4 12 -50 7 -58 -6 -3 -5 5 -6 17 -2 13 3 19 1 15 -5 -4 -6 -25 -9 -47 -8 -28
2 -40 -1 -37 -9 3 -6 10 -10 16 -8 7 1 10 -2 6 -8 -4 -6 -22 -7 -46 -4 -25 4
-39 3 -39 -4 0 -6 7 -9 15 -6 8 4 15 1 15 -5 0 -7 -14 -9 -39 -6 -27 3 -43 0
-51 -10 -7 -8 -21 -15 -31 -15 -10 0 -20 -4 -24 -9 -3 -6 4 -8 15 -6 11 2 18
0 15 -6 -4 -5 -23 -6 -44 -3 -30 5 -39 2 -44 -10 -4 -9 -18 -16 -32 -16 -14 0
-25 -5 -25 -11 0 -6 9 -9 20 -6 11 3 17 1 14 -4 -3 -5 -21 -7 -40 -3 -25 5
-40 2 -53 -10 -11 -10 -25 -14 -36 -10 -12 5 -16 3 -13 -6 2 -7 15 -15 28 -17
13 -2 33 -12 45 -23 21 -19 180 -55 213 -47 19 4 -3 11 -69 22 -19 3 -44 12
-55 21 -18 14 -15 15 31 11 28 -2 40 -2 28 0 -12 2 -27 11 -33 19 -7 8 -19 14
-26 14 -15 0 -18 12 -7 23 3 4 16 -2 27 -12 21 -19 210 -60 223 -48 3 3 -12 9
-33 12 -59 10 -104 26 -104 36 0 5 17 8 38 5 20 -2 29 -2 20 1 -9 2 -22 11
-28 19 -7 8 -19 14 -26 14 -8 0 -14 4 -14 9 0 20 18 20 41 1 12 -12 32 -23 43
-25 49 -11 141 -25 160 -25 33 0 12 9 -45 20 -29 6 -60 18 -69 26 -14 15 -13
16 10 11 14 -3 43 -9 65 -13 51 -8 75 -30 75 -66 0 -33 -11 -35 -48 -9 -15 11
-49 21 -77 24 -27 2 -42 2 -33 0 10 -2 24 -14 32 -25 13 -18 18 -19 30 -8 19
15 46 7 46 -14 0 -19 -20 -26 -42 -14 -13 6 -18 5 -18 -6 0 -25 -20 -29 -43
-8 -12 11 -44 23 -72 27 -49 7 -49 7 -28 -12 25 -22 36 -53 24 -72 -7 -11 -14
-10 -37 7 -16 11 -49 24 -74 27 l-45 7 25 -24 c17 -16 29 -21 37 -15 16 12 43
2 43 -15 0 -7 9 -19 21 -26 12 -8 19 -9 15 -4 -3 5 6 7 20 4 16 -3 29 1 37 13
7 9 20 15 28 13 7 -1 15 2 16 7 0 6 -3 9 -8 8 -5 -2 -9 2 -9 7 0 6 15 8 39 4
22 -4 41 -2 45 4 4 6 -2 8 -16 4 -13 -3 -19 -1 -15 5 4 6 24 9 46 8 27 -2 41
2 45 11 3 8 17 14 31 14 14 0 25 4 25 9 0 5 -10 7 -22 3 -14 -3 -19 -1 -14 6
3 6 15 9 26 7 11 -2 27 3 35 11 14 14 19 11 16 -9 -1 -5 3 -6 9 -2 5 3 10 -1
10 -9 0 -9 4 -16 10 -16 5 0 9 3 7 8 -1 4 3 8 8 9 6 0 9 -3 7 -8 -1 -6 5 -9
14 -7 9 2 19 -3 22 -11 3 -10 -1 -13 -16 -9 -11 3 -25 3 -30 -1 -6 -4 42 -16
106 -26 l118 -20 -21 32 c-17 26 -28 32 -70 38 -27 3 -58 9 -67 11 -26 8 -22
24 4 19 21 -4 21 -4 4 13 -15 15 -18 15 -29 1 -13 -17 -68 -20 -74 -3 -2 7 8
9 26 6 16 -2 32 1 35 7 4 6 -2 8 -14 6 -12 -2 -18 0 -14 6 3 6 15 9 25 6 12
-3 23 2 29 14 11 20 30 26 30 8 0 -5 -4 -8 -8 -5 -19 12 -7 -21 14 -37 21 -16
22 -16 17 3 -3 11 -9 17 -14 14 -5 -3 -9 0 -9 6 0 6 7 13 15 16 19 8 53 -5 40
-14 -12 -9 -18 -33 -7 -30 4 0 15 -2 25 -7 14 -6 15 -10 6 -21 -9 -11 -7 -14
8 -14 11 0 26 -12 34 -27 8 -16 20 -34 27 -41 16 -18 15 -35 -2 -29 -8 3 -17
0 -19 -7 -4 -10 1 -12 16 -8 13 3 18 1 14 -4 -5 -5 -29 -9 -53 -9 -36 0 -44 3
-44 19 0 15 -5 17 -31 12 -25 -5 -32 -2 -36 13 -3 14 -17 21 -51 26 -26 3 -68
13 -94 21 -26 9 -52 13 -58 9 -13 -8 -13 -35 0 -35 5 0 7 7 3 16 -4 12 -2 15
8 12 8 -3 13 -10 12 -16 -1 -5 5 -9 14 -8 9 0 18 -5 20 -12 6 -15 -61 -9 -81
8 -14 11 -46 4 -46 -10 0 -5 -12 -8 -27 -7 -19 1 -28 -3 -28 -13 0 -10 10 -15
30 -16 17 0 46 -5 66 -11 20 -6 42 -7 50 -3 17 9 59 -5 59 -20 0 -11 -74 -6
-110 7 -8 3 -32 7 -53 8 -21 2 -45 9 -53 16 -8 6 -17 10 -19 7 -14 -14 34 -30
141 -49 153 -27 169 -28 169 -9 0 10 -10 15 -30 15 -19 0 -31 6 -33 16 -2 12
-23 20 -77 28 -41 7 -75 16 -75 20 0 16 14 20 34 9 29 -16 265 -56 263 -45 -1
5 4 12 12 15 10 3 12 0 8 -12 -4 -9 -2 -16 4 -16 6 0 7 -5 4 -10 -4 -6 -13 -9
-20 -8 -8 2 -13 -1 -12 -7 1 -5 7 -9 12 -7 6 2 4 -3 -4 -10 -10 -9 -15 -10
-18 -2 -2 7 -14 10 -26 7 -20 -4 -20 -3 -4 7 19 12 23 30 6 30 -5 0 -7 -4 -4
-10 3 -5 2 -10 -3 -10 -6 0 -12 7 -16 15 -3 9 -17 15 -33 14 -21 -1 -23 -3 -8
-6 34 -9 46 -23 35 -43 -8 -16 -7 -18 10 -15 11 2 18 0 15 -6 -4 -5 -24 -7
-46 -4 -30 4 -39 2 -36 -7 2 -7 11 -12 18 -10 11 3 11 1 2 -9 -8 -8 -20 -9
-40 -1 -23 7 -33 6 -48 -7 -11 -9 -20 -23 -20 -31 0 -9 -9 -15 -22 -14 -13 0
-23 -3 -23 -8 0 -17 49 -8 54 10 7 21 73 24 119 4 42 -18 55 -14 28 8 -12 11
-27 17 -32 14 -5 -3 -9 -1 -9 5 0 21 22 22 43 3 23 -21 116 -43 176 -41 36 1
36 1 -9 11 -58 12 -90 25 -90 36 0 5 12 7 28 4 27 -5 27 -5 9 16 -21 23 -43
20 -50 -9 -7 -26 -47 -26 -47 1 0 14 7 20 24 20 13 0 29 7 36 15 11 13 15 12
37 -5 14 -11 47 -23 74 -26 67 -9 64 -27 -3 -20 -50 5 -51 5 -14 -5 22 -5 48
-17 57 -25 30 -27 39 -8 23 49 -24 83 -88 204 -163 307 -38 52 -67 98 -64 102
2 4 -16 49 -41 100 -76 153 -121 357 -132 593 -4 72 -11 136 -17 143 -7 9 -5
18 7 30 23 26 20 38 -14 59 -38 22 -38 49 0 71 28 16 30 20 30 83 0 36 3 94 6
128 4 34 3 60 -2 60 -5 -1 -52 -30 -104 -66z m65 -85 c-5 -54 -13 -81 -31
-105 -28 -36 -30 -61 -9 -89 24 -32 17 -36 -17 -11 -18 14 -43 28 -56 32 -22
6 -23 11 -20 88 l3 81 50 38 c28 21 58 38 69 38 17 0 18 -6 11 -72z m-4 -483
c4 -55 10 -121 14 -147 5 -33 4 -48 -4 -48 -6 0 -11 5 -11 11 0 6 -17 32 -39
58 -48 57 -67 111 -51 141 7 12 9 32 6 45 -5 19 -1 25 22 33 53 20 56 15 63
-93z m-133 -240 c17 -38 15 -47 -7 -35 -11 5 -32 10 -48 10 l-28 0 30 25 c38
31 39 31 53 0z m-72 -50 c5 -11 10 -12 26 -4 26 14 48 5 48 -21 0 -22 -12 -25
-40 -10 -14 7 -19 5 -23 -10 -6 -25 -16 -25 -46 1 -23 19 -23 20 -6 39 22 24
34 25 41 5z m-46 -66 c0 -17 -5 -20 -25 -17 -18 4 -26 0 -30 -13 -4 -11 -13
-19 -21 -19 -20 0 -18 6 13 40 31 36 63 40 63 9z m166 5 c-9 -8 -13 -20 -10
-26 4 -7 10 -4 16 6 9 16 11 16 29 0 28 -25 23 -34 -13 -28 -25 4 -29 3 -18
-5 8 -6 27 -11 42 -11 15 0 29 -4 33 -9 5 -9 -104 -3 -114 5 -2 2 2 10 8 18 9
10 9 16 1 21 -12 7 15 45 32 45 5 0 2 -7 -6 -16z m-66 -6 c0 -7 -15 -34 -32
-60 -34 -50 -68 -64 -68 -28 0 14 5 18 18 13 13 -5 14 -3 5 7 -13 14 -33 5
-33 -15 0 -9 -6 -12 -15 -8 -9 3 -15 2 -13 -3 2 -5 -1 -9 -7 -9 -5 0 -9 3 -7
8 2 8 -12 10 -42 7 -11 -1 -16 3 -13 12 2 7 11 11 18 10 42 -11 70 -10 66 1
-2 7 -11 11 -18 9 -12 -3 -12 -1 0 10 9 8 15 9 17 2 3 -5 18 -9 34 -8 17 1 30
-3 30 -9 0 -6 2 -8 5 -5 13 13 -7 35 -27 30 -14 -3 -19 -1 -14 6 3 6 17 9 30
6 17 -3 25 1 29 16 6 22 37 28 37 8z m-153 -128 c4 0 14 4 22 9 24 15 41 -10
24 -35 -13 -21 -16 -21 -61 -7 -71 22 -79 22 -79 7 0 -8 3 -12 5 -9 3 3 11 0
19 -6 7 -7 31 -12 53 -13 44 -1 48 -6 23 -28 -14 -13 -129 -48 -155 -48 -8 0
29 96 50 132 19 33 73 43 84 16 4 -10 11 -18 15 -18z m500 -176 c35 -44 33
-67 -2 -34 -14 13 -50 25 -103 35 -45 8 -90 19 -100 24 -11 6 -23 7 -27 3 -5
-4 -5 -1 -1 6 4 6 2 12 -3 12 -6 0 -11 5 -11 10 0 15 21 12 41 -6 10 -9 51
-22 91 -30 87 -17 91 -17 83 -4 -3 6 -17 10 -31 10 -30 0 -64 16 -64 31 0 5
12 7 28 3 27 -7 27 -7 8 15 -21 23 -42 29 -30 9 5 -10 4 -10 -6 -1 -11 10 -11
15 -1 27 11 14 19 10 55 -27 23 -23 56 -60 73 -83z m-148 83 c8 -10 7 -17 -1
-25 -26 -26 -60 -4 -38 23 15 18 24 19 39 2z m-109 -52 c9 -8 47 -21 84 -29
76 -16 82 -19 91 -58 9 -34 -16 -48 -40 -25 -18 19 -29 22 -122 37 -40 7 -76
16 -79 21 -3 5 -10 6 -16 3 -6 -4 -8 -2 -4 4 3 6 -2 12 -11 15 -17 4 -17 4 0
12 12 5 24 1 37 -10 19 -17 137 -44 190 -44 23 0 23 1 5 9 -11 5 -34 9 -51 9
-18 1 -42 10 -55 20 -18 14 -28 17 -42 9 -23 -12 -42 3 -34 26 8 20 26 20 47
1z m-292 -4 c15 -9 -20 -19 -93 -26 -29 -3 -35 -2 -20 5 11 5 32 9 48 9 15 1
27 6 27 11 0 12 20 13 38 1z m178 -43 c11 -17 -26 -40 -43 -27 -10 9 -10 15
-2 25 14 17 35 18 45 2z m340 -46 c-13 -13 -17 -13 -31 -2 -16 13 -15 15 1 27
13 10 21 10 31 1 12 -10 12 -14 -1 -26z m-451 -12 c0 -18 -33 -26 -47 -12 -6
6 -7 15 -3 22 10 16 50 8 50 -10z m342 -16 c8 -20 -9 -36 -30 -28 -20 7 -22
30 -4 37 21 9 27 7 34 -9z m-459 -31 c-4 -22 -48 -31 -48 -10 0 19 10 27 32
27 13 0 18 -6 16 -17z m-113 -53 c0 -19 -35 -26 -46 -9 -4 7 -5 17 -2 22 8 14
48 3 48 -13z m350 -20 c0 -18 -33 -26 -48 -11 -9 9 -8 14 3 21 21 14 45 8 45
-10z m466 -7 c12 -13 6 -14 -46 -8 -79 10 -89 21 -21 22 38 1 59 -3 67 -14z
m-113 -51 c3 -10 -8 -11 -50 -6 -73 9 -81 21 -12 20 37 -1 59 -6 62 -14z
m-583 -42 c0 -8 -10 -16 -22 -18 -22 -3 -32 16 -16 32 12 11 38 2 38 -14z
m760 -40 c0 -18 -33 -26 -47 -12 -6 6 -7 15 -3 22 10 16 50 8 50 -10z m-758
-9 c22 -7 33 -6 37 2 2 7 5 1 5 -12 1 -19 5 -22 25 -17 13 3 43 -1 66 -9 23
-8 46 -12 51 -9 5 3 9 0 9 -7 0 -8 -10 -9 -32 -5 -18 4 -51 9 -73 12 -68 8
-80 11 -77 23 4 18 -16 12 -22 -6 -4 -12 -16 -18 -36 -18 -16 0 -30 3 -30 7 0
4 -7 5 -15 2 -8 -4 -15 -2 -15 3 0 5 19 9 42 8 26 0 43 5 46 14 3 10 -2 11
-18 6 -15 -5 -20 -4 -16 4 9 13 12 13 53 2z m-229 -48 c-2 -10 -12 -18 -23
-18 -11 0 -21 8 -23 18 -3 13 3 17 23 17 20 0 26 -4 23 -17z m-113 -48 c0 -15
-6 -20 -27 -18 -18 1 -28 -4 -31 -18 -3 -10 -12 -19 -21 -19 -22 0 -21 4 15
45 34 38 64 43 64 10z m662 -40 c20 -20 12 -28 -21 -19 -26 6 -32 15 -19 27
10 11 23 8 40 -8z m441 -23 c3 -18 -2 -22 -22 -22 -19 0 -26 5 -26 19 0 36 43
38 48 3z"/>
<path d="M1670 700 c28 -9 86 -13 78 -5 -2 3 -27 7 -54 9 -35 4 -42 2 -24 -4z"/>
<path d="M1918 1836 c-2 -20 -1 -36 3 -36 12 0 21 52 11 62 -6 6 -11 -4 -14
-26z"/>
<path d="M1653 1818 c-31 -35 -39 -56 -11 -30 29 26 46 28 76 6 20 -14 22 -14
22 3 0 45 -54 57 -87 21z"/>
<path d="M1007 1740 c-20 -11 -40 -20 -43 -19 -12 1 -44 -56 -44 -78 0 -39 18
-35 44 10 37 62 92 91 163 85 49 -4 54 -3 38 9 -28 20 -114 16 -158 -7z"/>
<path d="M1700 1725 c0 -14 -9 -34 -21 -46 -11 -11 -18 -24 -14 -27 12 -12 45
39 45 69 0 16 -2 29 -5 29 -3 0 -5 -11 -5 -25z"/>
<path d="M1854 1722 c-6 -4 -14 -43 -18 -87 -3 -44 -10 -95 -15 -113 -11 -37
-10 -38 32 -15 30 16 31 18 9 21 -22 3 -23 6 -16 75 4 40 11 83 16 96 10 27 7
33 -8 23z"/>
<path d="M1611 1694 c-23 -29 -23 -30 -11 -59 8 -20 8 -20 15 0 5 11 17 30 28
42 18 20 17 43 -3 43 -5 0 -18 -12 -29 -26z"/>
<path d="M1055 1673 c-16 -8 -47 -31 -67 -51 -32 -31 -38 -42 -37 -77 1 -38 1
-39 8 -10 17 72 94 135 164 135 l36 0 -16 -45 c-12 -38 -24 -51 -74 -81 -65
-41 -73 -49 -31 -33 77 29 145 97 134 133 -2 5 5 17 14 27 17 18 15 19 -42 19
-34 -1 -72 -8 -89 -17z"/>
<path d="M2530 1619 c-55 -11 -120 -44 -194 -98 -91 -68 -101 -70 -139 -33
-18 18 -41 32 -52 32 -14 0 -10 -8 21 -35 35 -32 53 -39 92 -38 33 2 -9 -43
-48 -50 -22 -4 -22 -4 5 -6 26 -1 36 7 70 54 42 58 101 95 152 95 21 0 25 3
13 10 -11 7 -6 13 25 26 41 17 144 35 158 27 4 -2 7 0 7 5 0 9 -35 23 -55 21
-5 -1 -30 -5 -55 -10z"/>
<path d="M1878 1458 c-30 -41 -41 -58 -34 -58 8 0 69 81 64 86 -3 2 -16 -10
-30 -28z"/>
<path d="M2110 1438 c0 -12 62 -169 66 -166 6 7 -39 143 -52 158 -8 8 -14 11
-14 8z"/>
<path d="M1640 1310 c0 -19 56 -39 86 -31 l29 8 -32 7 c-18 4 -35 12 -38 17
-8 12 -45 12 -45 -1z"/>
<path d="M1598 1223 c-8 -15 -22 -40 -32 -55 -17 -25 -17 -26 1 -22 11 3 25
24 35 52 19 53 17 67 -4 25z"/>
<path d="M1655 1174 c-16 -8 -21 -11 -10 -8 11 3 45 10 75 14 l55 7 -45 1
c-25 1 -58 -6 -75 -14z"/>
<path d="M1254 1105 c-22 -20 -52 -38 -68 -42 -24 -5 -26 -7 -12 -15 13 -7 30
1 72 37 49 43 61 55 50 55 -2 0 -21 -16 -42 -35z"/>
<path d="M1364 1114 c8 -17 22 -37 31 -44 14 -11 19 -10 38 9 l22 23 -24 -12
c-22 -11 -27 -10 -53 21 l-29 34 15 -31z"/>
<path d="M1534 1095 c-21 -24 -40 -42 -44 -40 -4 2 -24 -13 -44 -34 l-38 -39
57 -12 c31 -7 61 -8 65 -3 5 4 18 40 30 78 12 39 24 76 26 83 12 27 -17 9 -52
-33z"/>
<path d="M1248 1020 c-24 -22 -28 -30 -15 -30 9 0 17 5 17 10 0 16 52 12 71
-6 17 -16 18 -15 9 17 -6 19 -10 35 -10 36 0 2 -9 3 -19 3 -11 0 -35 -13 -53
-30z"/>
<path d="M1170 965 c-25 -15 -25 -15 15 -13 22 2 39 8 38 13 -3 16 -26 16 -53
0z"/>
<path d="M1335 941 c6 -11 -31 -39 -102 -75 -38 -19 -68 -26 -108 -26 -35 0
-54 -4 -50 -10 3 -5 28 -10 54 -10 54 0 160 48 221 100 l35 29 -28 1 c-16 0
-26 -4 -22 -9z"/>
<path d="M1975 786 c82 -21 127 -26 123 -14 -2 6 -22 12 -43 13 -22 1 -60 5
-85 8 l-45 6 50 -13z"/>
<path d="M2042 744 c18 -18 54 -12 42 7 -4 8 -9 7 -15 -2 -6 -10 -9 -11 -9 -1
0 6 -8 12 -17 12 -16 0 -16 -1 -1 -16z"/>
<path d="M2320 353 c14 -3 33 -12 43 -21 16 -14 19 -14 27 -2 5 8 6 17 3 20
-3 3 -8 -1 -10 -7 -4 -10 -8 -9 -20 2 -8 8 -26 14 -41 14 l-27 -2 25 -4z"/>
<path d="M1893 320 c-4 -15 -11 -19 -32 -14 -22 4 -19 1 14 -20 22 -14 45 -26
50 -27 6 0 49 -2 97 -3 69 -2 92 -7 108 -21 16 -14 23 -16 32 -7 6 6 8 15 4
19 -4 4 -11 1 -16 -7 -8 -13 -10 -13 -10 1 0 14 -19 19 -101 29 -78 10 -105
17 -119 33 -11 11 -17 24 -14 29 3 4 2 8 -1 8 -4 0 -9 -9 -12 -20z"/>
<path d="M1974 238 c-3 -4 7 -10 21 -14 21 -5 25 -13 27 -43 1 -35 1 -35 5 -5
4 30 6 32 46 30 31 -1 42 3 42 14 0 9 -10 16 -25 17 -14 0 -27 2 -30 3 -16 5
-83 4 -86 -2z"/>
<path d="M2590 180 l-35 -7 42 -2 c23 0 45 4 48 9 7 11 -3 11 -55 0z"/>
<path d="M2152 134 c7 -6 36 -15 63 -19 50 -6 50 -6 25 11 -28 21 -109 28 -88
8z"/>
<path d="M1424 95 c11 -8 34 -15 50 -15 30 1 30 1 -9 15 -51 19 -65 18 -41 0z"/>
</g>
</svg>
